<svg xmlns="http://www.w3.org/2000/svg" viewBox="0 0 512 512" width="512" height="512">

  <defs>
    <!-- Chrome metallic gradient -->
    <linearGradient id="chrome" x1="0%" y1="0%" x2="100%" y2="100%">
      <stop offset="0%" stop-color="#F3F4F6"/>
      <stop offset="15%" stop-color="#D1D5DB"/>
      <stop offset="35%" stop-color="#FFFFFF"/>
      <stop offset="55%" stop-color="#9CA3AF"/>
      <stop offset="75%" stop-color="#E5E7EB"/>
      <stop offset="100%" stop-color="#6B7280"/>
    </linearGradient>

    <!-- Darker chrome for extrusion/shadow side -->
    <linearGradient id="chrome-dark" x1="0%" y1="0%" x2="0%" y2="100%">
      <stop offset="0%" stop-color="#4B5563"/>
      <stop offset="100%" stop-color="#1F2937"/>
    </linearGradient>

    <!-- Cyan glass gradient -->
    <linearGradient id="glass" x1="0%" y1="0%" x2="100%" y2="100%">
      <stop offset="0%" stop-color="#5EEAD4" stop-opacity="0.95"/>
      <stop offset="40%" stop-color="#14B8A6" stop-opacity="0.85"/>
      <stop offset="100%" stop-color="#0F766E" stop-opacity="0.95"/>
    </linearGradient>

    <!-- Glass edge highlight -->
    <linearGradient id="glass-edge" x1="0%" y1="0%" x2="100%" y2="100%">
      <stop offset="0%" stop-color="#CCFBF1" stop-opacity="0.9"/>
      <stop offset="100%" stop-color="#99F6E4" stop-opacity="0.4"/>
    </linearGradient>

    <!-- Chrome rivet -->
    <radialGradient id="rivet" cx="35%" cy="35%" r="65%">
      <stop offset="0%" stop-color="#FFFFFF"/>
      <stop offset="30%" stop-color="#E5E7EB"/>
      <stop offset="70%" stop-color="#9CA3AF"/>
      <stop offset="100%" stop-color="#374151"/>
    </radialGradient>

    <!-- Glow filter for glass letter -->
    <filter id="cyan-glow" x="-60%" y="-60%" width="220%" height="220%">
      <feGaussianBlur in="SourceGraphic" stdDeviation="10" result="blur1"/>
      <feGaussianBlur in="SourceGraphic" stdDeviation="20" result="blur2"/>
      <feMerge>
        <feMergeNode in="blur2"/>
        <feMergeNode in="blur1"/>
        <feMergeNode in="SourceGraphic"/>
      </feMerge>
    </filter>

    <!-- Soft drop shadow for metallic letter -->
    <filter id="metal-shadow" x="-30%" y="-30%" width="160%" height="160%">
      <feDropShadow dx="6" dy="10" stdDeviation="8" flood-color="#000000" flood-opacity="0.5"/>
    </filter>

    <!-- Inner bevel for metallic -->
    <filter id="metal-bevel" x="-20%" y="-20%" width="140%" height="140%">
      <feGaussianBlur in="SourceAlpha" stdDeviation="2" result="blur"/>
      <feSpecularLighting in="blur" surfaceScale="3" specularConstant="0.8" specularExponent="15" lighting-color="#FFFFFF" result="spec">
        <fePointLight x="100" y="100" z="200"/>
      </feSpecularLighting>
      <feComposite in="spec" in2="SourceAlpha" operator="in" result="specOut"/>
      <feMerge>
        <feMergeNode in="SourceGraphic"/>
        <feMergeNode in="specOut"/>
      </feMerge>
    </filter>
  </defs>


  <!-- Global subtle shadow so it pops on light backgrounds -->
  <rect x="0" y="0" width="512" height="512" fill="none"/>

  <!-- Metallic F (left) -->
  <g filter="url(#metal-shadow)">
    <!-- Extrusion layer -->
    <path d="M95 115 L95 405 L165 405 L165 285 L255 285 L255 245 L165 245 L165 195 L275 195 L275 155 L165 155 L165 115 Z" 
          fill="url(#chrome-dark)" transform="translate(8,8)"/>
    <!-- Front face -->
    <path d="M95 115 L95 405 L165 405 L165 285 L255 285 L255 245 L165 245 L165 195 L275 195 L275 155 L165 155 L165 115 Z" 
          fill="url(#chrome)" filter="url(#metal-bevel)"/>
  </g>

  <!-- F Rivets -->
  
    <circle cx="95" cy="115" r="14" fill="url(#rivet)" stroke="#4B5563" stroke-width="1.5"/>
    <circle cx="92" cy="112" r="4.8999999999999995" fill="#FFFFFF" opacity="0.8"/>
  
    <circle cx="275" cy="115" r="14" fill="url(#rivet)" stroke="#4B5563" stroke-width="1.5"/>
    <circle cx="272" cy="112" r="4.8999999999999995" fill="#FFFFFF" opacity="0.8"/>
  
    <circle cx="95" cy="405" r="14" fill="url(#rivet)" stroke="#4B5563" stroke-width="1.5"/>
    <circle cx="92" cy="402" r="4.8999999999999995" fill="#FFFFFF" opacity="0.8"/>
  
    <circle cx="165" cy="405" r="14" fill="url(#rivet)" stroke="#4B5563" stroke-width="1.5"/>
    <circle cx="162" cy="402" r="4.8999999999999995" fill="#FFFFFF" opacity="0.8"/>

  <!-- Glass P (right, overlapping) -->
  <g filter="url(#cyan-glow)">
    <!-- P Extrusion -->
    <path d="M235 115 L235 405 L305 405 L305 285 L335 285 C375 285 395 255 395 200 C395 145 375 115 335 115 Z M305 165 L330 165 C345 165 350 180 350 200 C350 220 345 235 330 235 L305 235 Z" 
          fill="#042F2E" transform="translate(6,6)" opacity="0.6"/>
    <!-- P Front -->
    <path d="M235 115 L235 405 L305 405 L305 285 L335 285 C375 285 395 255 395 200 C395 145 375 115 335 115 Z M305 165 L330 165 C345 165 350 180 350 200 C350 220 345 235 330 235 L305 235 Z" 
          fill="url(#glass)" stroke="url(#glass-edge)" stroke-width="3"/>
    <!-- Glass highlight -->
    <path d="M245 125 L245 395 L295 395 L295 275 L335 275 C365 275 385 250 385 200 C385 150 365 125 335 125 Z" 
          fill="none" stroke="#FFFFFF" stroke-width="4" opacity="0.25" stroke-linecap="round"/>
  </g>

  <!-- P Rivets (on glass, chrome style) -->
  
    <circle cx="235" cy="115" r="12" fill="url(#rivet)" stroke="#4B5563" stroke-width="1.5"/>
    <circle cx="232" cy="112" r="4.199999999999999" fill="#FFFFFF" opacity="0.8"/>
  
    <circle cx="395" cy="115" r="12" fill="url(#rivet)" stroke="#4B5563" stroke-width="1.5"/>
    <circle cx="392" cy="112" r="4.199999999999999" fill="#FFFFFF" opacity="0.8"/>
  
    <circle cx="235" cy="405" r="12" fill="url(#rivet)" stroke="#4B5563" stroke-width="1.5"/>
    <circle cx="232" cy="402" r="4.199999999999999" fill="#FFFFFF" opacity="0.8"/>

</svg>